<?xml version="1.0" encoding="UTF-8"?>
<svg version="1.1" xmlns="http://www.w3.org/2000/svg" width="2480" height="588">
<path d="M0 0 C0.99 0 1.98 0 3 0 C3.33 1.32 3.66 2.64 4 4 C4.66 4 5.32 4 6 4 C7.00484204 5.95585325 8.00373805 7.91476237 9 9.875 C9.8353125 11.51082031 9.8353125 11.51082031 10.6875 13.1796875 C12 16 12 16 12 18 C12.66 18.33 13.32 18.66 14 19 C15.33275467 21.16830065 16.5878304 23.33447629 17.8125 25.5625 C18.52995852 26.84577498 19.24870283 28.12833197 19.96875 29.41015625 C20.31679688 30.03035645 20.66484375 30.65055664 21.0234375 31.28955078 C22.22759349 33.39862999 23.50435283 35.45402592 24.8125 37.5 C30 45.66680743 30 45.66680743 30 49 C30.66 49 31.32 49 32 49 C33.17154293 51.28929053 34.33738074 53.58118362 35.5 55.875 C35.83386719 56.52597656 36.16773438 57.17695312 36.51171875 57.84765625 C39 62.7734375 39 62.7734375 39 65 C39.66 65 40.32 65 41 65 C41.8353125 66.48886719 41.8353125 66.48886719 42.6875 68.0078125 C46.45917317 74.72503832 50.2395763 81.43678359 54.0625 88.125 C54.70316406 89.24648437 55.34382813 90.36796875 56.00390625 91.5234375 C57.41820623 93.99298479 58.84513519 96.45486152 60.27734375 98.9140625 C60.64915771 99.55585449 61.02097168 100.19764648 61.40405273 100.85888672 C62.12004228 102.09436344 62.83946329 103.32785964 63.56274414 104.55908203 C66 108.77497558 66 108.77497558 66 111 C66.66 111 67.32 111 68 111 C69.00484204 112.95585325 70.00373805 114.91476237 71 116.875 C71.8353125 118.51082031 71.8353125 118.51082031 72.6875 120.1796875 C74 123 74 123 74 125 C74.66 125.33 75.32 125.66 76 126 C77.27408051 128.04271593 78.46377949 130.08180517 79.625 132.1875 C80.33561511 133.45721173 81.04656283 134.72673736 81.7578125 135.99609375 C82.12422852 136.65335449 82.49064453 137.31061523 82.86816406 137.98779297 C83.99625224 139.99333713 85.14603385 141.98463497 86.3046875 143.97265625 C86.67255371 144.60598877 87.04041992 145.23932129 87.41943359 145.8918457 C88.13052888 147.11465325 88.84432658 148.33589394 89.56103516 149.55541992 C92 153.77604429 92 153.77604429 92 156 C92.66 156 93.32 156 94 156 C95.17154293 158.28929053 96.33738074 160.58118362 97.5 162.875 C97.83386719 163.52597656 98.16773438 164.17695313 98.51171875 164.84765625 C101 169.7734375 101 169.7734375 101 172 C101.66 172 102.32 172 103 172 C103.53109375 173.00160156 104.0621875 174.00320312 104.609375 175.03515625 C105.32285987 176.37763436 106.03640475 177.72008057 106.75 179.0625 C107.09804688 179.71927734 107.44609375 180.37605469 107.8046875 181.05273438 C111.28220973 187.5891882 114.9465931 193.97085965 118.875 200.25 C121.91864541 205.15188589 124.7633554 210.12884069 127.48046875 215.21875 C129.76601636 219.40206593 132.22501066 223.48059134 134.6796875 227.56640625 C136 230 136 230 136 232 C136.66 232 137.32 232 138 232 C138.72703125 233.38058594 138.72703125 233.38058594 139.46875 234.7890625 C143.36027561 242.14635576 147.3234046 249.44066073 151.56054688 256.60595703 C154 260.78664959 154 260.78664959 154 263 C154.66 263 155.32 263 156 263 C157.17154293 265.28929053 158.33738074 267.58118362 159.5 269.875 C159.83386719 270.52597656 160.16773438 271.17695313 160.51171875 271.84765625 C163 276.7734375 163 276.7734375 163 279 C163.66 279 164.32 279 165 279 C165.46148437 279.88558594 165.92296875 280.77117187 166.3984375 281.68359375 C170.55239209 289.59274923 174.89219037 297.35538791 179.49755859 305.01147461 C179.89539551 305.67671143 180.29323242 306.34194824 180.703125 307.02734375 C181.05020508 307.60218506 181.39728516 308.17702637 181.75488281 308.76928711 C183.62269429 312.11559956 185.28614314 315.57228627 187 319 C153.01 319 119.02 319 84 319 C85.65 321.64 87.3 324.28 89 327 C90.36796542 329.34617533 91.72281023 331.70006495 93.0625 334.0625 C93.71347656 335.20847656 94.36445313 336.35445313 95.03515625 337.53515625 C95.68355469 338.67855469 96.33195312 339.82195312 97 341 C97.37495605 341.63405762 97.74991211 342.26811523 98.13623047 342.92138672 C101 347.79092884 101 347.79092884 101 350 C101.66 350 102.32 350 103 350 C103.53109375 351.01320313 104.0621875 352.02640625 104.609375 353.0703125 C105.32274694 354.42196459 106.03629817 355.77352207 106.75 357.125 C107.09804688 357.79015625 107.44609375 358.4553125 107.8046875 359.140625 C109.98842968 363.26547135 112.36988138 367.13701327 115 371 C115.77147844 372.29999126 116.52347434 373.61186177 117.25 374.9375 C117.66507812 375.69160156 118.08015625 376.44570313 118.5078125 377.22265625 C119.68366719 379.41122349 120.84254026 381.60627706 121.9921875 383.80859375 C122.3437793 384.47834229 122.69537109 385.14809082 123.05761719 385.83813477 C123.75861742 387.17583947 124.45474568 388.5161108 125.14550781 389.85913086 C126.81343993 393.04032781 128.42449874 395.52328509 131 398 C131.9528042 399.65600054 132.84624133 401.34714072 133.6875 403.0625 C134.12449219 403.94035156 134.56148438 404.81820313 135.01171875 405.72265625 C136 408 136 408 136 410 C136.66 410 137.32 410 138 410 C139.17176518 412.12232979 140.33754785 414.24757791 141.5 416.375 C142.00080078 417.27992188 142.00080078 417.27992188 142.51171875 418.203125 C145 422.7734375 145 422.7734375 145 425 C145.66 425 146.32 425 147 425 C148.17154293 427.28929053 149.33738074 429.58118362 150.5 431.875 C150.83386719 432.52597656 151.16773438 433.17695313 151.51171875 433.84765625 C154 438.7734375 154 438.7734375 154 441 C154.66 441 155.32 441 156 441 C156.54269531 442.03640625 157.08539063 443.0728125 157.64453125 444.140625 C158.36700609 445.51051236 159.08967243 446.88029873 159.8125 448.25 C160.16892578 448.93191406 160.52535156 449.61382812 160.89257812 450.31640625 C162.72095116 453.77186354 164.60505552 456.89987742 167 460 C167.92443599 461.60890039 168.81804244 463.23573617 169.6875 464.875 C171.46841714 468.19907961 173.27574213 471.49997546 175.16796875 474.76171875 C175.5338208 475.39287598 175.89967285 476.0240332 176.27661133 476.67431641 C177.00092966 477.91945487 177.72856206 479.16267219 178.4597168 480.40380859 C181 484.78070231 181 484.78070231 181 487 C181.66 487 182.32 487 183 487 C184.00484204 488.95585325 185.00373805 490.91476237 186 492.875 C186.556875 493.96554687 187.11375 495.05609375 187.6875 496.1796875 C189 499 189 499 189 501 C189.66 501.33 190.32 501.66 191 502 C192.44302399 504.29203208 193.80161157 506.57831463 195.125 508.9375 C195.68380859 509.90719727 195.68380859 509.90719727 196.25390625 510.89648438 C199 515.73986951 199 515.73986951 199 518 C77.23 518 -44.54 518 -170 518 C-166.62771546 510.13133608 -166.62771546 510.13133608 -165.0625 507.46484375 C-164.72476563 506.88283203 -164.38703125 506.30082031 -164.0390625 505.70117188 C-163.69617188 505.11916016 -163.35328125 504.53714844 -163 503.9375 C-160.51579477 499.69287114 -158.15472878 495.42392753 -156 491 C-155.34 491 -154.68 491 -154 491 C-153.74863281 490.14019531 -153.49726563 489.28039062 -153.23828125 488.39453125 C-151.92444159 484.79286985 -150.24875828 481.91535952 -148.1875 478.6875 C-145.44936942 474.34415263 -142.81581476 469.97783121 -140.359375 465.46875 C-138.18266813 461.51565017 -135.92523386 457.60872344 -133.67773438 453.69555664 C-131.77494538 450.38241359 -131.77494538 450.38241359 -130 447 C-129.34 447 -128.68 447 -128 447 C-127.690625 446.05125 -127.38125 445.1025 -127.0625 444.125 C-126 441 -126 441 -125 439 C-196.28 439 -267.56 439 -341 439 C-340.04805076 434.24025378 -338.76344557 431.37420203 -336.4375 427.1875 C-336.10814453 426.59001953 -335.77878906 425.99253906 -335.43945312 425.37695312 C-334.63226733 423.91466002 -333.81695083 422.4568601 -333 421 C-332.34 421 -331.68 421 -331 421 C-330.7525 420.175 -330.505 419.35 -330.25 418.5 C-328.81295189 414.47626529 -326.97645485 410.78020976 -325 407 C-324.34 407 -323.68 407 -323 407 C-322.72414063 406.27554687 -322.44828125 405.55109375 -322.1640625 404.8046875 C-321.05021987 402.12099956 -319.78926354 399.66119328 -318.375 397.125 C-315.75009933 392.37548914 -313.17408032 387.60295428 -310.625 382.8125 C-310.26712402 382.14041504 -309.90924805 381.46833008 -309.54052734 380.77587891 C-308.69323484 379.18415876 -307.84654982 377.59211527 -307 376 C-306.34 376 -305.68 376 -305 376 C-304.74734375 375.13761719 -304.4946875 374.27523438 -304.234375 373.38671875 C-302.93637345 369.8254297 -301.29317764 367.00001551 -299.25 363.8125 C-296.17092819 358.93753454 -293.30350057 353.99713743 -290.58203125 348.9140625 C-288.33135866 344.76837917 -285.97913384 340.682695 -283.62695312 336.59399414 C-281.74940873 333.33176272 -281.74940873 333.33176272 -280 330 C-279.34 330 -278.68 330 -278 330 C-277.6596875 328.824375 -277.6596875 328.824375 -277.3125 327.625 C-275.59339067 322.87698375 -273.31915279 318.47897448 -271 314 C-270.34 314 -269.68 314 -269 314 C-268.75894531 313.16082031 -268.51789063 312.32164062 -268.26953125 311.45703125 C-266.82288281 307.51769627 -264.89909125 304.23366436 -262.6875 300.6875 C-261.87135765 299.35349919 -261.05624692 298.01886667 -260.2421875 296.68359375 C-259.65775879 295.72815674 -259.65775879 295.72815674 -259.06152344 294.75341797 C-256.40656688 290.36797684 -253.98585106 285.85253331 -251.578125 281.328125 C-248.81812017 276.17801289 -245.95518275 271.24069434 -242.58984375 266.4609375 C-240.6926472 263.52424505 -239.02863087 260.48924196 -237.3449707 257.42626953 C-235.1673619 253.49795653 -232.88945884 249.62866298 -230.625 245.75 C-226.25923158 238.24566596 -222.04189268 230.68373454 -218 223 C-217.34 223 -216.68 223 -216 223 C-215.7525 222.175 -215.505 221.35 -215.25 220.5 C-213.81295189 216.47626529 -211.97645485 212.78020976 -210 209 C-209.34 209 -208.68 209 -208 209 C-207.72285156 208.27425781 -207.44570312 207.54851562 -207.16015625 206.80078125 C-206.0604183 204.14585833 -204.8268597 201.70101399 -203.4375 199.1875 C-202.90769531 198.2284375 -202.37789062 197.269375 -201.83203125 196.28125 C-195.61776892 185.15122791 -189.34118898 174.05820421 -183 163 C-182.34 163 -181.68 163 -181 163 C-180.6596875 161.824375 -180.6596875 161.824375 -180.3125 160.625 C-178.59339067 155.87698375 -176.31915279 151.47897448 -174 147 C-173.34 147 -172.68 147 -172 147 C-171.72671875 146.28070313 -171.4534375 145.56140625 -171.171875 144.8203125 C-170.0205196 142.04938383 -168.70592032 139.49722209 -167.25 136.875 C-166.72664062 135.92753906 -166.20328125 134.98007813 -165.6640625 134.00390625 C-165.11492187 133.01261719 -164.56578125 132.02132812 -164 131 C-162.87357182 128.93827965 -161.74850744 126.87581342 -160.625 124.8125 C-159.75 123.20833333 -158.875 121.60416667 -158 120 C-157.34 120 -156.68 120 -156 120 C-154.59765625 121.9765625 -154.59765625 121.9765625 -153.0625 124.625 C-152.53140625 125.53636719 -152.0003125 126.44773437 -151.453125 127.38671875 C-150.34877891 129.3727605 -149.31389937 131.3976124 -148.3125 133.4375 C-147.20874959 135.95351362 -147.20874959 135.95351362 -145.6171875 137.28125 C-143.41489622 139.62184943 -142.2286586 142.18472585 -140.8125 145.0625 C-140.28269531 146.12597656 -139.75289062 147.18945312 -139.20703125 148.28515625 C-138 151 -138 151 -138 153 C-137.34 153 -136.68 153 -136 153 C-135.27296875 154.38058594 -135.27296875 154.38058594 -134.53125 155.7890625 C-124.91933358 176.13523621 -124.91933358 176.13523621 -112 194 C-111.49210938 193.10539063 -110.98421875 192.21078125 -110.4609375 191.2890625 C-107.2802093 185.69873873 -104.09729596 180.11799849 -100.75 174.625 C-98.25997783 170.51578309 -96.08408729 166.32848899 -94 162 C-93.34 162 -92.68 162 -92 162 C-91.7525 161.175 -91.505 160.35 -91.25 159.5 C-89.81295189 155.47626529 -87.97645485 151.78020976 -86 148 C-85.34 148 -84.68 148 -84 148 C-83.72414063 147.27554688 -83.44828125 146.55109375 -83.1640625 145.8046875 C-82.05021987 143.12099956 -80.78926354 140.66119328 -79.375 138.125 C-77.51068451 134.76372182 -75.67394701 131.39322401 -73.8984375 127.984375 C-73.36404053 126.9631958 -73.36404053 126.9631958 -72.81884766 125.92138672 C-72.11359946 124.57113766 -71.41265319 123.21863179 -70.71630859 121.86376953 C-68.22301337 117.11150669 -68.22301337 117.11150669 -66 116 C-65.02533933 114.21801498 -64.11979473 112.39795394 -63.25 110.5625 C-60.89496034 105.7326729 -58.36545511 101.12533976 -55.55859375 96.546875 C-47.25050648 82.97075245 -39.46982307 69.05260465 -32 55 C-31.34 55 -30.68 55 -30 55 C-29.62875 53.7625 -29.62875 53.7625 -29.25 52.5 C-27.81295189 48.47626529 -25.97645485 44.78020976 -24 41 C-23.34 41 -22.68 41 -22 41 C-21.73574219 40.29875 -21.47148437 39.5975 -21.19921875 38.875 C-19.91377826 35.7932925 -18.41315428 32.93025955 -16.8125 30 C-15.89210938 28.30810547 -15.89210938 28.30810547 -14.953125 26.58203125 C-14.47456055 25.70538818 -14.47456055 25.70538818 -13.98632812 24.81103516 C-12.33344364 21.77611012 -10.6988664 18.73135265 -9.0625 15.6875 C-8.04166667 13.79166667 -7.02083333 11.89583333 -6 10 C-5.34 10 -4.68 10 -4 10 C-3.71125 9.0925 -3.4225 8.185 -3.125 7.25 C-2.23468224 4.67797092 -1.28505587 2.38653234 0 0 Z M1 50 C0.32845067 51.28913487 -0.33708859 52.58140204 -1 53.875 C-1.556875 54.95394531 -1.556875 54.95394531 -2.125 56.0546875 C-3.13673746 57.94848977 -3.13673746 57.94848977 -3 60 C-3.66 60 -4.32 60 -5 60 C-9.39733704 67.76763164 -13.78208083 75.54218378 -18.0625 83.375 C-18.63097656 84.41398437 -19.19945312 85.45296875 -19.78515625 86.5234375 C-21.14680115 88.83952014 -21.14680115 88.83952014 -21 91 C-21.66 91 -22.32 91 -23 91 C-24.17176518 93.12232979 -25.33754785 95.24757791 -26.5 97.375 C-26.83386719 97.97828125 -27.16773438 98.5815625 -27.51171875 99.203125 C-29.38773938 102.41414777 -29.38773938 102.41414777 -30 106 C-30.66 106 -31.32 106 -32 106 C-33.17154293 108.28929053 -34.33738074 110.58118362 -35.5 112.875 C-35.83386719 113.52597656 -36.16773438 114.17695312 -36.51171875 114.84765625 C-38.36843717 118.2524471 -38.36843717 118.2524471 -39 122 C-39.66 122 -40.32 122 -41 122 C-41.61875 123.16402344 -41.61875 123.16402344 -42.25 124.3515625 C-45.88136253 131.14415581 -49.59459573 137.87035665 -53.50976562 144.50439453 C-55.40604044 147.54897658 -55.40604044 147.54897658 -56 151 C-56.99 151.495 -56.99 151.495 -58 152 C-59.27994671 154.12841818 -60.47032974 156.24315714 -61.625 158.4375 C-61.94984375 159.03626953 -62.2746875 159.63503906 -62.609375 160.25195312 C-64.41912607 163.44814722 -64.41912607 163.44814722 -65 167 C-65.66 167 -66.32 167 -67 167 C-67.81791016 168.4540625 -67.81791016 168.4540625 -68.65234375 169.9375 C-69.01223389 170.57727783 -69.37212402 171.21705566 -69.74291992 171.8762207 C-70.54916471 173.3095997 -71.35531482 174.74303195 -72.16137695 176.17651367 C-74.23562209 179.86499801 -76.31119191 183.55271886 -78.390625 187.23828125 C-79.15627796 188.5963384 -79.92190341 189.95441107 -80.6875 191.3125 C-81.06213379 191.97612549 -81.43676758 192.63975098 -81.82275391 193.32348633 C-84.03562887 197.25287679 -86.18964122 201.20847325 -88.3125 205.1875 C-90.25367518 208.77948067 -92.35074543 211.87766426 -95 215 C-96.7250399 217.54648747 -97.03270839 218.59698588 -96.78125 221.6953125 C-95.87116622 225.54496687 -94.21550182 228.59184908 -92.1875 231.9375 C-91.49348958 233.11328125 -90.79947917 234.2890625 -90.10546875 235.46484375 C-89.58992432 236.32698486 -89.58992432 236.32698486 -89.06396484 237.20654297 C-87.33788187 240.1160899 -85.67153779 243.05884475 -84 246 C-83.34 246 -82.68 246 -82 246 C-81.7525 246.825 -81.505 247.65 -81.25 248.5 C-79.81295189 252.52373471 -77.97645485 256.21979024 -76 260 C-75.34 260 -74.68 260 -74 260 C-73.79375 260.78375 -73.5875 261.5675 -73.375 262.375 C-71.89293264 266.28226851 -69.97898141 269.52262122 -67.7890625 273.06640625 C-65.34031748 277.08170648 -63.0309816 281.1720323 -60.71630859 285.265625 C-59.21704705 287.90778457 -57.68630521 290.47054218 -56 293 C-53.04935852 293.2208564 -50.31631769 293.28060989 -47.375 293.1875 C-46.57320313 293.17396484 -45.77140625 293.16042969 -44.9453125 293.14648438 C-42.96325622 293.11109051 -40.98154449 293.05728234 -39 293 C-37.99491199 291.21118264 -36.99607264 289.41885304 -36 287.625 C-35.1646875 286.12839844 -35.1646875 286.12839844 -34.3125 284.6015625 C-32.84985732 282.18804491 -32.84985732 282.18804491 -33 280 C-32.34 280 -31.68 280 -31 280 C-30.0179948 278.25635243 -29.03605767 276.51266649 -28.05444336 274.76879883 C-27.2208968 273.28801245 -26.38707149 271.80738296 -25.55297852 270.3269043 C-23.49267689 266.66687698 -21.44777184 263.00030904 -19.4375 259.3125 C-16.76390149 254.46834939 -13.8074506 249.798253 -10.8671875 245.11328125 C-7.41219282 239.89044785 -7.41219282 239.89044785 -6 234 C-5.34 234 -4.68 234 -4 234 C-3.443125 233.00742188 -2.88625 232.01484375 -2.3125 230.9921875 C-1.5417451 229.61974762 -0.77090542 228.24735534 0 226.875 C0.40283203 226.15739502 0.80566406 225.43979004 1.22070312 224.70043945 C3.24526905 221.09923093 5.27931705 217.50430725 7.34375 213.92578125 C7.70726562 213.29494629 8.07078125 212.66411133 8.4453125 212.01416016 C9.45092684 210.27249198 10.45975662 208.53268154 11.46875 206.79296875 C13.08549898 204.04147482 13.08549898 204.04147482 14 201 C14.66 201 15.32 201 16 201 C16.25007813 201.84691406 16.50015625 202.69382813 16.7578125 203.56640625 C18.10029818 207.2772393 19.87407319 210.55675192 21.875 213.9375 C22.55989583 215.11328125 23.24479167 216.2890625 23.9296875 217.46484375 C24.26709961 218.03960449 24.60451172 218.61436523 24.95214844 219.20654297 C26.65724163 222.12490611 28.32711717 225.0630779 30 228 C30.66 228 31.32 228 32 228 C32.15275391 228.79664063 32.15275391 228.79664063 32.30859375 229.609375 C33.20308101 232.7021784 34.59861127 235.38451568 36.0625 238.25 C36.61035156 239.32765625 37.15820312 240.4053125 37.72265625 241.515625 C38.14417969 242.33546875 38.56570313 243.1553125 39 244 C39.66 244 40.32 244 41 244 C41.25265625 244.86238281 41.5053125 245.72476563 41.765625 246.61328125 C43.06362655 250.1745703 44.70682236 252.99998449 46.75 256.1875 C49.91726845 261.1940131 52.83535537 266.28409946 55.62890625 271.5078125 C56.8864592 273.793621 58.21899439 275.99088333 59.625 278.1875 C62.05907419 281.99221791 64.03895433 285.93264602 66 290 C66.66 290 67.32 290 68 290 C68 290.99 68 291.98 68 293 C92.42 293 116.84 293 142 293 C140.05499575 287.13959373 140.05499575 287.13959373 137 282 C136.34 282 135.68 282 135 282 C134.83177734 281.17242187 134.83177734 281.17242187 134.66015625 280.328125 C133.88639227 277.59934789 132.73182306 275.27227057 131.4375 272.75 C130.98246094 271.85796875 130.52742187 270.9659375 130.05859375 270.046875 C129.70925781 269.37140625 129.35992187 268.6959375 129 268 C128.34 268 127.68 268 127 268 C126.74734375 267.14792969 126.4946875 266.29585937 126.234375 265.41796875 C124.91216207 261.75677789 123.22303518 258.66589506 121.25 255.3125 C120.53554722 254.08777063 119.82201737 252.86250244 119.109375 251.63671875 C118.57860352 250.72672119 118.57860352 250.72672119 118.03710938 249.79833984 C115.60476399 245.58067127 113.30916184 241.28594432 111 237 C110.34 237 109.68 237 109 237 C108.773125 236.195625 108.54625 235.39125 108.3125 234.5625 C105.47407108 226.85819293 100.8099994 220.00408778 96.57983398 213 C92.63326689 206.44048302 88.890204 199.77312103 85.16455078 193.08642578 C83.09878858 189.38537677 81.01707099 185.69330157 78.9375 182 C78.17571477 180.64587073 77.41398959 179.29170767 76.65234375 177.9375 C76.10707031 176.968125 75.56179688 175.99875 75 175 C74.34 175 73.68 175 73 175 C72.83177734 173.91138672 72.83177734 173.91138672 72.66015625 172.80078125 C71.97038613 169.87436007 70.94489186 167.77712191 69.4375 165.1875 C68.98246094 164.39730469 68.52742187 163.60710937 68.05859375 162.79296875 C67.70925781 162.20128906 67.35992187 161.60960937 67 161 C66.34 161 65.68 161 65 161 C64.62101562 159.72189453 64.62101562 159.72189453 64.234375 158.41796875 C62.91216207 154.75677789 61.22303518 151.66589506 59.25 148.3125 C58.53554722 147.08777063 57.82201737 145.86250244 57.109375 144.63671875 C56.75552734 144.03005371 56.40167969 143.42338867 56.03710938 142.79833984 C53.60476399 138.58067127 51.30916184 134.28594432 49 130 C48.34 130 47.68 130 47 130 C46.773125 129.21625 46.54625 128.4325 46.3125 127.625 C44.59339067 122.87698375 42.31915279 118.47897448 40 114 C39.34 114 38.68 114 38 114 C37.63841797 112.74123047 37.63841797 112.74123047 37.26953125 111.45703125 C35.82287777 107.51768255 33.89905188 104.23368719 31.6875 100.6875 C30.86745815 99.34698459 30.04843998 98.00584239 29.23046875 96.6640625 C28.64531494 95.70741699 28.64531494 95.70741699 28.04833984 94.73144531 C26.40895319 92.02382302 24.88195958 89.26079037 23.36328125 86.484375 C21.49528846 83.08023914 19.59148387 79.69660704 17.6875 76.3125 C17.304729 75.63195557 16.92195801 74.95141113 16.52758789 74.25024414 C12.71628114 67.48228731 8.86385651 60.73806039 5 54 C4.34 54 3.68 54 3 54 C2.01 52.02 2.01 52.02 1 50 Z M-158 171 C-158.49306641 171.91265625 -158.49306641 171.91265625 -158.99609375 172.84375 C-162.12316096 178.60636709 -165.29247662 184.34435998 -168.5 190.0625 C-168.88406006 190.74731445 -169.26812012 191.43212891 -169.66381836 192.13769531 C-172.30383625 196.82183333 -175.04178607 201.43306008 -177.90625 205.984375 C-178.99672438 207.9939635 -179.55717442 209.76574369 -180 212 C-180.66 212 -181.32 212 -182 212 C-183.17441535 214.10016623 -184.33964012 216.20458755 -185.5 218.3125 C-185.83386719 218.90740234 -186.16773438 219.50230469 -186.51171875 220.11523438 C-188.06825114 222.95828844 -189 224.70660988 -189 228 C-189.66 228 -190.32 228 -191 228 C-195.39733704 235.76763164 -199.78208083 243.54218378 -204.0625 251.375 C-204.63097656 252.41398437 -205.19945312 253.45296875 -205.78515625 254.5234375 C-207.14680115 256.83952014 -207.14680115 256.83952014 -207 259 C-207.66 259 -208.32 259 -209 259 C-213.1958763 266.3170595 -217.37132121 273.64478205 -221.5 281 C-232.55061819 300.67352104 -232.55061819 300.67352104 -237.375 308.5 C-239.44264152 311.9048662 -240.9784516 315.11811608 -242 319 C-242.66 319 -243.32 319 -244 319 C-244.91441893 320.62563366 -245.82882286 322.25127575 -246.74316406 323.87695312 C-247.54825603 325.30808145 -248.35359997 326.73906805 -249.15917969 328.16992188 C-251.25387822 331.89130251 -253.34475082 335.61470649 -255.42578125 339.34375 C-256.20023504 340.72932644 -256.97496862 342.11474655 -257.75 343.5 C-258.31364258 344.50812744 -258.31364258 344.50812744 -258.88867188 345.53662109 C-260.81578421 348.96383463 -262.79772156 352.3243447 -264.9375 355.625 C-266.83951286 358.73738468 -268.03648933 361.49632484 -269 365 C-269.66 365 -270.32 365 -271 365 C-272.17154293 367.28929053 -273.33738074 369.58118362 -274.5 371.875 C-275.00080078 372.85146484 -275.00080078 372.85146484 -275.51171875 373.84765625 C-277.36843717 377.2524471 -277.36843717 377.2524471 -278 381 C-278.66 381 -279.32 381 -280 381 C-280.4125 381.77601563 -280.825 382.55203125 -281.25 383.3515625 C-286.45602803 393.08962385 -286.45602803 393.08962385 -289.2109375 397.83984375 C-289.571875 398.4622998 -289.9328125 399.08475586 -290.3046875 399.72607422 C-291.33153561 401.48792447 -292.36484643 403.24600329 -293.3984375 405.00390625 C-294.69993454 407.43865803 -295.5395153 409.30945369 -296 412 C-296.66 412 -297.32 412 -298 412 C-298 412.66 -298 413.32 -298 414 C-235.63 414 -173.26 414 -109 414 C-106.69 409.71 -104.38 405.42 -102 401 C-100.12718443 397.76633785 -98.2138522 394.56364485 -96.28515625 391.36328125 C-94.84075579 389.15551759 -94.84075579 389.15551759 -95 387 C-94.34 386.67 -93.68 386.34 -93 386 C-91.73284712 384.07920265 -90.53357667 382.11317479 -89.375 380.125 C-88.74335938 379.05507813 -88.11171875 377.98515625 -87.4609375 376.8828125 C-85.77397913 374.09264564 -85.77397913 374.09264564 -86 371 C-85.34 371 -84.68 371 -84 371 C-82.62404674 368.5630339 -81.24914672 366.12548463 -79.875 363.6875 C-79.46483643 362.96071045 -79.05467285 362.2339209 -78.63208008 361.48510742 C-76.26760196 357.28596857 -73.95391264 353.0656651 -71.6875 348.8125 C-69.743717 345.20952101 -67.56950555 342.18973102 -65 339 C-62.56455208 335.95663449 -62.56455208 335.95663449 -62 332 C-63.4884311 328.90163322 -65.2570714 326.24018775 -67.265625 323.453125 C-69 321 -69 321 -70 318 C-107.29 318 -144.58 318 -183 318 C-183 317.34 -183 316.68 -183 316 C-182.34 316 -181.68 316 -181 316 C-179.82558465 313.89983377 -178.66035988 311.79541245 -177.5 309.6875 C-177.16613281 309.09259766 -176.83226562 308.49769531 -176.48828125 307.88476562 C-174.93174886 305.04171156 -174 303.29339012 -174 300 C-173.34 300 -172.68 300 -172 300 C-168.99141362 294.67145923 -165.99235095 289.33767328 -163 284 C-162.36191406 282.86433594 -161.72382813 281.72867188 -161.06640625 280.55859375 C-160.52886719 279.59050781 -159.99132812 278.62242187 -159.4375 277.625 C-158.96183594 276.77164063 -158.48617187 275.91828125 -157.99609375 275.0390625 C-156.85368925 273.07871935 -156.85368925 273.07871935 -157 271 C-156.34 270.67 -155.68 270.34 -155 270 C-153.95559831 268.360792 -152.96064245 266.68965791 -152 265 C-151.57460937 264.30261719 -151.14921875 263.60523438 -150.7109375 262.88671875 C-144.72961249 253.04026851 -139.11209683 242.97503584 -133.6875 232.8125 C-132.12105661 229.88526361 -130.72765236 227.67876945 -128.5625 225.125 C-126.7834763 223.1288179 -126.7834763 223.1288179 -126.9375 220.6875 C-128.12841354 217.67518928 -129.65233284 215.18953716 -131.421875 212.484375 C-133.32632025 209.48628793 -135.06947013 206.40577617 -136.8125 203.3125 C-140.10441496 197.49248808 -143.57092679 191.80084905 -147.11328125 186.12890625 C-149.48646408 182.19325523 -151.60676557 178.14933589 -153.67578125 174.046875 C-154.90082108 171.68597251 -154.90082108 171.68597251 -158 171 Z M-25 318 C-25.83819158 319.62249941 -26.6704116 321.24808497 -27.5 322.875 C-27.9640625 323.77992188 -28.428125 324.68484375 -28.90625 325.6171875 C-30.13905589 327.86596859 -30.13905589 327.86596859 -30 330 C-30.99 330.33 -31.98 330.66 -33 331 C-32.505 332.98 -32.505 332.98 -32 335 C-31.34 335 -30.68 335 -30 335 C-29.84724609 336.05767578 -29.84724609 336.05767578 -29.69140625 337.13671875 C-28.90085188 340.41059645 -27.59476266 342.88584467 -25.9375 345.8125 C-25.38964844 346.78832031 -24.84179688 347.76414062 -24.27734375 348.76953125 C-23.64505859 349.87361328 -23.64505859 349.87361328 -23 351 C-22.34 351 -21.68 351 -21 351 C-20.773125 351.78375 -20.54625 352.5675 -20.3125 353.375 C-18.59339067 358.12301625 -16.31915279 362.52102552 -14 367 C-13.34 367 -12.68 367 -12 367 C-11.74734375 367.86238281 -11.4946875 368.72476563 -11.234375 369.61328125 C-9.93637345 373.1745703 -8.29317764 375.99998449 -6.25 379.1875 C-3.7230176 383.18537848 -1.29004774 387.20068785 0.9375 391.375 C3.43432204 396.0247292 6.05774663 400.58655335 8.75 405.125 C9.33382446 406.12152588 9.33382446 406.12152588 9.92944336 407.13818359 C11.87576071 410.65359086 11.87576071 410.65359086 15 413 C15.41765625 414.26457031 15.41765625 414.26457031 15.84375 415.5546875 C17.25119167 419.74848329 19.28592577 423.31226514 21.5 427.125 C22.30287755 428.52298167 23.10498572 429.92140555 23.90625 431.3203125 C24.43702148 432.23707764 24.43702148 432.23707764 24.97851562 433.17236328 C26.04851888 435.08680983 27.02492333 437.03582889 28 439 C27.37623065 438.98340773 26.7524613 438.96681545 26.10978985 438.94972038 C10.89338564 438.55124671 -4.32140674 438.25390123 -19.54169178 438.06738091 C-26.90267197 437.97476567 -34.26015968 437.8486673 -41.61889648 437.64208984 C-48.03727942 437.46199714 -54.45313388 437.34640519 -60.87397307 437.30640709 C-64.27179299 437.28303468 -67.66238477 437.22867716 -71.05787086 437.09685898 C-84.79747286 436.0410381 -84.79747286 436.0410381 -97.17394638 440.70761871 C-100.79117083 444.87823341 -103.01567894 449.50031524 -105.01363182 454.60943985 C-107.41927037 460.43974112 -110.86219724 465.86548397 -114.125 471.25 C-114.84042969 472.43335938 -114.84042969 472.43335938 -115.5703125 473.640625 C-116.04210937 474.41921875 -116.51390625 475.1978125 -117 476 C-120.531372 481.88562001 -123.74589571 487.95666347 -127 494 C-33.61 494 59.78 494 156 494 C155.67 492.68 155.34 491.36 155 490 C154.34 490 153.68 490 153 490 C152.75894531 489.16082031 152.51789063 488.32164062 152.26953125 487.45703125 C150.8229067 483.51776132 148.89927467 480.23350496 146.6875 476.6875 C145.87128733 475.35484496 145.05617631 474.02151454 144.2421875 472.6875 C143.85256836 472.05070313 143.46294922 471.41390625 143.06152344 470.7578125 C141.35154796 467.92620638 139.77112391 465.02831051 138.1875 462.125 C136.32142368 458.78570554 134.32463627 455.52664676 132.33203125 452.26171875 C131.12401719 450.21057464 130.03461602 448.14278294 129 446 C128.34 446 127.68 446 127 446 C126.773125 445.195625 126.54625 444.39125 126.3125 443.5625 C124.65560267 439.06520724 122.38347834 435.14838729 120 431 C118.80841661 428.88750485 117.6210214 426.77268543 116.43383789 424.65771484 C114.62569631 421.43670809 112.81262074 418.21848781 111 415 C110.34 415 109.68 415 109 415 C108.773125 414.195625 108.54625 413.39125 108.3125 412.5625 C105.47660302 404.86506534 100.82000267 398.01265262 96.58862305 391.01757812 C93.31166801 385.57741325 90.1952276 380.05577517 87.10571289 374.50756836 C84.87157847 370.50810636 82.54026245 366.60429715 80.0625 362.75 C78.15525695 359.60865851 76.59513987 356.30843824 75 353 C74.34 353 73.68 353 73 353 C72.62875 351.7625 72.62875 351.7625 72.25 350.5 C70.81295189 346.47626529 68.97645485 342.78020976 67 339 C66.34 339 65.68 339 65 339 C64.79375 338.21625 64.5875 337.4325 64.375 336.625 C62.50684609 331.69986697 59.77657311 327.45806014 57 323 C56.62993332 322.1358699 56.25986664 321.27173981 55.87858582 320.38142395 C54.14529475 317.64241252 54.14529475 317.64241252 50.64009094 317.39872742 C49.22924745 317.38422896 47.81795865 317.3975404 46.4074707 317.43237305 C45.63650055 317.43164291 44.8655304 317.43091278 44.07119751 317.43016052 C41.52201045 317.43364499 38.97464915 317.47254367 36.42578125 317.51171875 C34.65887958 317.52104389 32.89196499 317.52816142 31.12504578 317.53315735 C26.47387007 317.55225082 21.82347473 317.60137147 17.17260742 317.65667725 C12.42702797 317.70781932 7.68132245 317.73066058 2.93554688 317.75585938 C-6.37664501 317.80948825 -15.68825762 317.89482919 -25 318 Z " fill="#FEFEFE" transform="translate(341,0)"/>
<path d="M0 0 C15.84 0 31.68 0 48 0 C52.49894353 11.24735882 52.49894353 11.24735882 53.75732422 15.28857422 C54.04719711 16.21201126 54.33707001 17.1354483 54.63572693 18.08686829 C54.93898392 19.06624863 55.24224091 20.04562897 55.5546875 21.0546875 C55.8890834 22.12200607 56.22347931 23.18932465 56.56800842 24.28898621 C57.29334687 26.60422079 58.01711462 28.91994792 58.73947144 31.2361145 C60.71054711 37.55257267 62.69632816 43.8644024 64.68359375 50.17578125 C64.89291346 50.84085379 65.10223316 51.50592632 65.31789589 52.19115257 C70.53200933 68.7508846 75.85874375 85.27411067 81.20322418 101.7921524 C81.9353778 104.05593824 82.66663931 106.32001042 83.39764404 108.58416748 C84.5552239 112.16912395 85.71485625 115.7534098 86.87618828 119.33715248 C87.30354446 120.65665488 87.73033756 121.97633982 88.15651131 123.29622459 C90.29734373 129.92368897 92.48124805 136.5058624 95 143 C102.37798124 120.97620071 109.69806013 98.93564747 116.86209106 76.84124756 C121.919515 61.24899626 127.07688304 45.69156491 132.29492188 30.15234375 C132.57287094 29.32272629 132.85082001 28.49310883 133.13719177 27.63835144 C133.64217558 26.13129504 134.14838857 24.62464937 134.65638733 23.11860657 C137.22559035 15.44662665 139.58482614 7.72855635 142 0 C156.19 0 170.38 0 185 0 C185 65.67 185 131.34 185 199 C174.11 199 163.22 199 152 199 C151.67 149.83 151.34 100.66 151 50 C144.4 70.13 137.8 90.26 131 111 C126.86614909 123.43571678 122.73193695 135.87069327 118.57275391 148.29785156 C115.91596065 156.23771735 113.27156332 164.18172012 110.625 172.125 C109.09875 176.70375 107.5725 181.2825 106 186 C95.44 186 84.88 186 74 186 C69.35183465 171.42713261 69.35183465 171.42713261 67.20507812 164.6953125 C65.79805632 160.28316376 64.39101071 155.87102265 62.98364258 151.45898438 C52.30429168 117.9784179 41.65534612 84.48823065 31 51 C30.67 99.84 30.34 148.68 30 199 C20.1 199 10.2 199 0 199 C0 133.33 0 67.66 0 0 Z " fill="#FEFEFE" transform="translate(1262,163)"/>
<path d="M0 0 C15.84 0 31.68 0 48 0 C49.45148437 4.5478125 50.90296875 9.095625 52.3984375 13.78125 C54.39033883 20.02092472 56.38262608 26.26047617 58.375 32.5 C58.63335758 33.30913975 58.89171516 34.1182795 59.15790176 34.95193863 C64.88987898 52.90330663 70.62472143 70.85371855 76.39453125 88.79296875 C76.70590782 89.76114973 76.70590782 89.76114973 77.02357483 90.74888992 C79.15142812 97.36453573 81.28147122 103.97947267 83.41357422 110.59375 C85.28246046 116.39368403 87.14480535 122.19567249 89 128 C89.23688538 128.73913635 89.47377075 129.47827271 89.71783447 130.23980713 C90.31292389 132.10231051 90.90097518 133.9670589 91.48828125 135.83203125 C91.78903564 136.78440674 92.08979004 137.73678223 92.3996582 138.71801758 C93 141 93 141 93 144 C93.66 144 94.32 144 95 144 C95.3561438 142.20381226 95.3561438 142.20381226 95.71948242 140.37133789 C97.18680536 133.79225755 99.36344533 127.44816654 101.48828125 121.05859375 C101.94449065 119.67576868 102.40029548 118.29281008 102.85572815 116.909729 C104.08190678 113.18945839 105.31328068 109.47092696 106.54567719 105.75271225 C107.83240866 101.86777766 109.11460136 97.98134628 110.39697266 94.0949707 C111.98661093 89.27790958 113.5764939 84.46093092 115.16827393 79.64457703 C118.60073296 69.25652 122.01451544 58.86251004 125.411726 48.46287346 C126.15156595 46.19817052 126.8918218 43.93360397 127.63221741 41.66908264 C130.44935179 33.05305042 130.44935179 33.05305042 133.26113892 24.43527222 C134.13811191 21.74453966 135.01658559 19.05430749 135.8969574 16.36468506 C136.69114323 13.93834102 137.48306187 11.51125332 138.27235413 9.08331299 C138.79278542 7.4965274 138.79278542 7.4965274 139.32373047 5.87768555 C139.62519989 4.95408737 139.92666931 4.0304892 140.23727417 3.0789032 C141 1 141 1 142 0 C155.86 0 169.72 0 184 0 C184 65.67 184 131.34 184 199 C173.11 199 162.22 199 151 199 C150.67 150.16 150.34 101.32 150 51 C145.33875 65.128125 140.6775 79.25625 135.875 93.8125 C133.71686768 100.35155151 133.71686768 100.35155151 131.51513672 107.02270508 C130.16873307 111.10460217 130.16873307 111.10460217 128.82260513 115.18659019 C128.20352816 117.06405784 127.5843036 118.94147683 126.96496201 120.81885719 C123.25686418 132.06143643 119.56781864 143.30982454 115.91894531 154.57177734 C115.59207544 155.57981132 115.26520557 156.58784529 114.92843056 157.62642574 C113.36758367 162.44094111 111.81006048 167.25648668 110.25827026 172.07392883 C109.70630347 173.77938217 109.15423623 175.484803 108.60205078 177.19018555 C108.35142002 177.97248976 108.10078926 178.75479397 107.84256363 179.56080437 C106.11343833 184.88656167 106.11343833 184.88656167 105 186 C102.70848583 186.08790975 100.41427476 186.10694038 98.12109375 186.09765625 C97.09110008 186.09553383 97.09110008 186.09553383 96.04029846 186.09336853 C93.83932199 186.08775479 91.63844591 186.07520007 89.4375 186.0625 C87.94856917 186.05748676 86.45963676 186.05292355 84.97070312 186.04882812 C81.31376925 186.03778093 77.65689442 186.02050713 74 186 C71.06844618 178.97778053 68.59440663 171.89426218 66.33984375 164.62890625 C65.99724518 163.53707031 65.65464661 162.44523438 65.30166626 161.3203125 C64.56255795 158.96413458 63.82510112 156.60743809 63.08914185 154.25027466 C61.10719295 147.90370005 59.1123314 141.56118571 57.1171875 135.21875 C56.80746222 134.23353961 56.80746222 134.23353961 56.49147987 133.22842598 C50.79417723 115.11064793 44.9506592 97.04003593 39.10717773 78.96899414 C38.72016693 77.77105225 38.33315613 76.57311035 37.93441772 75.33886719 C37.21629284 73.11645345 36.49723581 70.89434057 35.77700806 68.67260742 C35.45428925 67.67406738 35.13157043 66.67552734 34.79907227 65.64672852 C34.52249283 64.79272964 34.24591339 63.93873077 33.96095276 63.05885315 C32.5976247 58.71918058 31.30708301 54.35694335 30 50 C29.67 99.17 29.34 148.34 29 199 C19.43 199 9.86 199 0 199 C0 133.33 0 67.66 0 0 Z " fill="#FEFEFE" transform="translate(644,163)"/>
<path d="M0 0 C7.58092317 5.41494512 12.12795926 13.21803809 16.3125 21.375 C16.77398438 20.69695312 17.23546875 20.01890625 17.7109375 19.3203125 C26.0610533 7.40572039 34.5811211 -2.41316258 49.3125 -5.625 C62.82689552 -6.75574862 75.65665109 -6.34693346 86.53515625 2.640625 C96.15056543 12.02357373 98.43121516 24.51555822 98.73468399 37.45093441 C98.79151171 43.44603949 98.75401186 49.43858225 98.703125 55.43359375 C98.69565164 58.03531964 98.68996389 60.63705122 98.68597412 63.23878479 C98.67234819 69.34769408 98.64093916 75.45626601 98.60057616 81.56504923 C98.55557271 88.53015642 98.53380028 95.495279 98.51379442 102.46049583 C98.47219602 116.76548654 98.40202433 131.07023281 98.3125 145.375 C93.63110746 145.39965288 88.94975241 145.41783739 84.26831055 145.42993164 C82.67455386 145.43497157 81.08080181 145.4418035 79.48706055 145.45043945 C77.20099747 145.46251999 74.91499533 145.46823155 72.62890625 145.47265625 C71.91223282 145.47781754 71.19555939 145.48297882 70.45716858 145.48829651 C68.74186328 145.48849263 67.02668734 145.43692007 65.3125 145.375 C63.15519087 143.21769087 64.147408 138.17632209 64.13891602 135.18041992 C64.132229 134.21443878 64.12554199 133.24845764 64.11865234 132.25320435 C64.10456063 130.14590424 64.09267986 128.03858849 64.08270454 125.93126488 C64.06632232 122.58834136 64.04307987 119.24553158 64.01780701 115.90266418 C63.94699498 106.39423291 63.88719776 96.88575218 63.83569336 87.37719727 C63.80373456 81.56637924 63.76240325 75.75568672 63.71549797 69.94497108 C63.69956208 67.73599849 63.68720209 65.52699692 63.67859077 63.31798363 C63.6537265 47.23954974 63.6537265 47.23954974 61.3125 31.375 C61.126875 30.199375 60.94125 29.02375 60.75 27.8125 C58.74080822 24.40560959 56.55287866 23.78827502 52.8125 22.78125 C44.04460194 21.35646656 37.38834174 24.5728588 30.3125 29.4375 C25.64715081 33.52608899 17.90137588 42.0608802 17.05358028 48.27185249 C17.04934834 48.990474 17.04511641 49.7090955 17.04075623 50.44949341 C17.0310379 51.27675934 17.02131958 52.10402527 17.01130676 52.95635986 C17.01071762 53.86037537 17.01012848 54.76439087 17.00952148 55.69580078 C16.99686249 57.12782333 16.99686249 57.12782333 16.98394775 58.58877563 C16.95812374 61.74929285 16.94602041 64.90971668 16.93359375 68.0703125 C16.91742659 70.260821 16.90024743 72.45132224 16.88209534 74.64181519 C16.8363595 80.41177021 16.80157584 86.18173475 16.76989746 91.95178223 C16.7180604 101.1956349 16.6530656 110.43938135 16.58168221 119.68310165 C16.5587654 122.9210592 16.54254944 126.15900307 16.52696228 129.39700317 C16.51356184 131.36899976 16.49994759 133.3409949 16.48608398 135.31298828 C16.48347061 136.22105225 16.48085724 137.12911621 16.47816467 138.06469727 C16.42613653 144.26136347 16.42613653 144.26136347 15.3125 145.375 C12.86419574 145.46343793 10.44429401 145.49028752 7.99609375 145.47265625 C6.89951195 145.47053383 6.89951195 145.47053383 5.78077698 145.46836853 C3.43714368 145.46275408 1.09360461 145.45019922 -1.25 145.4375 C-2.83528508 145.43248686 -4.42057166 145.42792363 -6.00585938 145.42382812 C-9.8997761 145.41277997 -13.79362205 145.39550572 -17.6875 145.375 C-17.69558685 144.1953064 -17.70367371 143.01561279 -17.71200562 141.8001709 C-17.78987334 130.62079348 -17.877711 119.44153172 -17.97502708 108.26230621 C-18.02473178 102.51652893 -18.0710617 96.77076777 -18.109375 91.02490234 C-18.14655704 85.46807539 -18.19300095 79.91139254 -18.24556351 74.35469055 C-18.26393424 72.24671486 -18.27910425 70.13870848 -18.29084396 68.03068542 C-17.17180718 44.96600667 -17.17180718 44.96600667 -25.3125 24.5625 C-30.4668288 21.9853356 -35.75644443 21.83125278 -41.25 23.4375 C-49.39139092 26.58078484 -55.51540534 32.47112533 -60.6875 39.375 C-61.30145897 40.18105556 -61.30145897 40.18105556 -61.92782116 41.00339508 C-65.74944045 46.46785646 -66.41081928 50.70421991 -66.34692383 57.27929688 C-66.36264938 58.71482407 -66.36264938 58.71482407 -66.37869263 60.17935181 C-66.40731284 63.31781964 -66.40116623 66.45517574 -66.39453125 69.59375 C-66.40765413 71.7795143 -66.42296016 73.96526649 -66.44035339 76.15100098 C-66.48014679 81.88519713 -66.49039026 87.61907562 -66.49438477 93.35339355 C-66.50372678 99.21225587 -66.54114711 105.07093238 -66.57617188 110.9296875 C-66.64069028 122.4114497 -66.67397757 133.89307238 -66.6875 145.375 C-71.36889254 145.39965288 -76.05024759 145.41783739 -80.73168945 145.42993164 C-82.32544614 145.43497157 -83.91919819 145.4418035 -85.51293945 145.45043945 C-87.79900253 145.46251999 -90.08500467 145.46823155 -92.37109375 145.47265625 C-93.08776718 145.47781754 -93.80444061 145.48297882 -94.54283142 145.48829651 C-96.25813672 145.48849263 -97.97331266 145.43692007 -99.6875 145.375 C-100.6875 144.375 -100.6875 144.375 -100.81054783 141.95619869 C-100.80962604 140.87309194 -100.80870424 139.78998518 -100.80775452 138.67405701 C-100.80912918 137.4358017 -100.81050385 136.19754639 -100.81192017 134.92176819 C-100.80838056 133.53695655 -100.80474574 132.15214515 -100.80102539 130.76733398 C-100.80074352 129.31892906 -100.80090124 127.87052399 -100.8014679 126.42211914 C-100.80175589 122.47807686 -100.7958588 118.53406473 -100.78889394 114.59002948 C-100.78266078 110.47270531 -100.78205663 106.35538052 -100.78086853 102.23805237 C-100.7777551 94.43594138 -100.76954156 86.63384433 -100.75951904 78.83173949 C-100.74835826 69.95159696 -100.74284754 61.07145378 -100.73782361 52.19130599 C-100.72735895 33.91919448 -100.70901333 15.64710208 -100.6875 -2.625 C-89.4675 -2.625 -78.2475 -2.625 -66.6875 -2.625 C-66.1925 8.76 -66.1925 8.76 -65.6875 20.375 C-63.8621875 18.085625 -63.8621875 18.085625 -62 15.75 C-60.89398437 14.37714844 -60.89398437 14.37714844 -59.765625 12.9765625 C-58.60954418 11.52928839 -57.46348528 10.07323899 -56.359375 8.5859375 C-43.57511412 -8.24967366 -17.32854473 -10.43189984 0 0 Z " fill="#FEFEFE" transform="translate(1123.6875,217.625)"/>
<path d="M0 0 C10.89 0 21.78 0 33 0 C33.33 29.37 33.66 58.74 34 89 C37.3 85.37 40.6 81.74 44 78 C58.90763688 65.89850653 73.10546753 61.5356003 92 63 C100.66850599 64.50714888 107.39824993 68.16697417 113 75 C121.25949507 88.2151921 122.17046344 101.85207756 122.11352539 117.07104492 C122.11367142 118.11628326 122.11381744 119.16152161 122.1139679 120.23843384 C122.11327784 123.65246747 122.10552841 127.06644479 122.09765625 130.48046875 C122.09578884 132.86371328 122.09436646 135.2469582 122.09336853 137.63020325 C122.08956877 143.87229491 122.07976043 150.11436293 122.06866455 156.35644531 C122.05839554 162.738278 122.05385919 169.12011454 122.04882812 175.50195312 C122.03813567 188.00131409 122.0205597 200.50065137 122 213 C110.45 213 98.9 213 87 213 C86.98541748 209.77549072 86.97083496 206.55098145 86.95581055 203.22875977 C86.90541147 192.55972904 86.8388068 181.89084344 86.76428509 171.2219553 C86.71961034 164.75516068 86.68034757 158.28842864 86.65356445 151.8215332 C86.62750299 145.57740918 86.58707979 139.33352636 86.53681374 133.08955193 C86.52016437 130.71064193 86.50863811 128.33169023 86.50238609 125.95273018 C86.49272431 122.61349491 86.46463888 119.27487406 86.43237305 115.93579102 C86.43380814 114.95826874 86.43524323 113.98074646 86.4367218 112.97360229 C86.34874452 106.51045184 85.91103562 99.46901987 81.58372021 94.31224918 C77.11892471 90.61277991 70.4259144 91.5356797 65 92 C52.94190914 94.900932 44.68076244 103.792339 37 113 C36.47379562 113.51697449 35.94759125 114.03394897 35.40544128 114.56658936 C33.2293822 118.33426389 33.56067582 121.98821594 33.56762695 126.26660156 C33.5574353 127.20352844 33.54724365 128.14045532 33.53674316 129.10577393 C33.50656345 132.20078472 33.49733952 135.29548626 33.48828125 138.390625 C33.47143828 140.5372623 33.45328856 142.68388971 33.43388367 144.83050537 C33.38633625 150.47917594 33.35655745 156.12780642 33.33044434 161.77661133 C33.30066282 167.54125891 33.2541242 173.30576834 33.20898438 179.0703125 C33.12289712 190.38015205 33.05712452 201.68997703 33 213 C21.78 213 10.56 213 -1 213 C-1.02311552 185.37590493 -1.04097744 157.75181217 -1.05181217 130.12770939 C-1.05697588 117.30234003 -1.06402 104.47697677 -1.07543945 91.65161133 C-1.08538401 80.47743251 -1.09185288 69.30325811 -1.09408849 58.12907499 C-1.09539599 52.20846633 -1.09848429 46.28787032 -1.10573006 40.3672657 C-1.11248668 34.80157696 -1.1146177 29.23590615 -1.11310768 23.6702137 C-1.11338417 21.62107242 -1.11539141 19.57193057 -1.11920547 17.52279282 C-1.12413713 14.7380375 -1.12300025 11.95335107 -1.12025452 9.16859436 C-1.12316736 8.34662616 -1.1260802 7.52465797 -1.12908131 6.67778164 C-1.11412121 1.11412121 -1.11412121 1.11412121 0 0 Z " fill="#FEFEFE" transform="translate(1788,149)"/>
<path d="M0 0 C8.49484595 6.92817355 12.28253516 16.70030115 13.6875 27.3125 C13.82964264 31.11981943 13.81379638 34.9243214 13.80102539 38.73388672 C13.80117142 39.87593063 13.80131744 41.01797455 13.8014679 42.19462585 C13.80077256 45.96049922 13.79299784 49.7263228 13.78515625 53.4921875 C13.78329073 56.10678073 13.78186746 58.72137431 13.78086853 61.33596802 C13.77776557 67.50877984 13.76956618 73.68157387 13.75951904 79.85437787 C13.74832571 86.88461051 13.74283935 93.91484403 13.73782361 100.94508338 C13.72738267 115.40089808 13.70980333 129.85669879 13.6875 144.3125 C9.00610746 144.33715288 4.32475241 144.35533739 -0.35668945 144.36743164 C-1.95044614 144.37247157 -3.54419819 144.3793035 -5.13793945 144.38793945 C-7.42400253 144.40001999 -9.71000467 144.40573155 -11.99609375 144.41015625 C-12.71276718 144.41531754 -13.42944061 144.42047882 -14.16783142 144.42579651 C-15.88313672 144.42599263 -17.59831266 144.37442007 -19.3125 144.3125 C-20.84891432 142.77608568 -20.44652466 141.37040268 -20.45726013 139.2286377 C-20.46415863 138.34836914 -20.47105713 137.46810059 -20.47816467 136.56115723 C-20.48077805 135.58771362 -20.48339142 134.61427002 -20.48608398 133.61132812 C-20.492771 132.59176025 -20.49945801 131.57219238 -20.50634766 130.52172852 C-20.52043822 128.29819453 -20.53231936 126.07464573 -20.54229546 123.85108948 C-20.55866524 120.32836603 -20.58190493 116.80575107 -20.60719299 113.28308105 C-20.67805504 103.26364535 -20.73792928 93.24416345 -20.78930664 83.22460938 C-20.82118243 77.10258284 -20.86248935 70.98067747 -20.90950203 64.85874939 C-20.92548187 62.52727959 -20.9378219 60.19578182 -20.94640923 57.86427307 C-20.95862654 54.59233391 -20.98280653 51.3206766 -21.00952148 48.04882812 C-21.01011063 47.09157837 -21.01069977 46.13432861 -21.01130676 45.14807129 C-21.08653123 38.15975711 -21.38216693 31.30140282 -25.25 25.3125 C-29.38774035 21.30014573 -34.51167462 21.97864939 -39.9609375 22.0390625 C-51.34322584 22.96768742 -61.11054323 31.98730227 -68.3125 40.3125 C-73.0934712 45.94556319 -74.04148249 49.6071351 -73.95605469 56.90380859 C-73.9693708 58.30744659 -73.9693708 58.30744659 -73.98295593 59.73944092 C-74.00654253 62.81363936 -73.99547114 65.88668571 -73.984375 68.9609375 C-73.99495625 71.10089353 -74.00786835 73.2408392 -74.02301025 75.38076782 C-74.0571757 80.9995366 -74.06259354 86.6179579 -74.06109619 92.23681641 C-74.0643266 100.17744514 -74.10692557 108.11797795 -74.14483643 116.0585022 C-74.16490763 120.28639276 -74.17418661 124.51409866 -74.17498779 128.74203491 C-74.17880604 130.66054286 -74.18264984 132.57905076 -74.18652344 134.49755859 C-74.18442368 135.3806369 -74.18232391 136.26371521 -74.18016052 137.17355347 C-74.19949 143.19949 -74.19949 143.19949 -75.3125 144.3125 C-86.2025 144.3125 -97.0925 144.3125 -108.3125 144.3125 C-108.3125 95.4725 -108.3125 46.6325 -108.3125 -3.6875 C-97.0925 -3.6875 -85.8725 -3.6875 -74.3125 -3.6875 C-73.8175 7.6975 -73.8175 7.6975 -73.3125 19.3125 C-72.03375 17.8275 -70.755 16.3425 -69.4375 14.8125 C-52.03249815 -4.41174541 -23.53157356 -15.81991556 0 0 Z " fill="#FEFEFE" transform="translate(2129.3125,218.6875)"/>
<path d="M0 0 C8.38960038 7.08486319 12.57361678 16.2338364 14.3359375 26.97265625 C14.43628418 29.60128225 14.48987486 32.2044822 14.49365234 34.83300781 C14.49873306 35.60932053 14.50381378 36.38563324 14.50904846 37.18547058 C14.51972023 38.8659987 14.52835283 40.54654074 14.53516769 42.22708893 C14.54700799 44.89322695 14.56647464 47.5592067 14.58828735 50.22528076 C14.64972538 57.80394167 14.70386934 65.38258539 14.73730469 72.96142578 C14.75833039 77.60334021 14.7936959 82.2449637 14.83806229 86.88671112 C14.85215899 88.64878653 14.86093032 90.41091338 14.86411667 92.1730423 C14.26013752 106.27164481 14.26013752 106.27164481 19.81454468 118.63116455 C22.42961425 120.93700829 24.56988543 121.19605104 27.9609375 121.53515625 C28.77820312 121.61894531 29.59546875 121.70273437 30.4375 121.7890625 C31.06398438 121.84964844 31.69046875 121.91023437 32.3359375 121.97265625 C33.15945614 128.3549257 33.45679968 134.54010224 33.3359375 140.97265625 C31.77434691 141.45477839 30.21161822 141.93321498 28.6484375 142.41015625 C27.77832031 142.67699219 26.90820312 142.94382812 26.01171875 143.21875 C15.26218907 146.2474496 5.46531696 145.84287542 -4.6640625 140.97265625 C-9.5461666 138.00094071 -11.84590184 133.78825008 -14.6640625 128.97265625 C-15.3240625 127.98265625 -15.9840625 126.99265625 -16.6640625 125.97265625 C-17.12554688 126.32457031 -17.58703125 126.67648437 -18.0625 127.0390625 C-20.25315206 128.69720428 -22.45627711 130.33739219 -24.6640625 131.97265625 C-25.46972656 132.57207031 -26.27539062 133.17148437 -27.10546875 133.7890625 C-39.77552821 142.96940292 -52.30059908 146.71172498 -67.96875 144.5078125 C-80.95776704 141.92529029 -89.56494936 135.59381068 -97.30859375 125.0234375 C-103.97140157 114.94282048 -104.07194333 101.90258744 -102.015625 90.3203125 C-98.69706471 78.3933501 -92.07034873 69.65600387 -81.6640625 62.97265625 C-77.76948295 60.92143809 -73.83083507 59.38178298 -69.6640625 57.97265625 C-68.05337891 57.41771484 -68.05337891 57.41771484 -66.41015625 56.8515625 C-51.05829143 52.16881491 -34.61046035 51.78237772 -18.6640625 51.97265625 C-18.77911992 49.1386104 -18.90583975 46.30586006 -19.0390625 43.47265625 C-19.07 42.68117188 -19.1009375 41.8896875 -19.1328125 41.07421875 C-19.56402653 32.30620024 -20.87049983 24.60092365 -27.4765625 18.22265625 C-38.11696493 12.14242629 -52.91834191 14.06251006 -64.2890625 17.03515625 C-73.155486 19.49129008 -81.34064603 23.07821368 -89.6640625 26.97265625 C-89.6640625 18.39265625 -89.6640625 9.81265625 -89.6640625 0.97265625 C-63.53845345 -9.96364521 -24.74540101 -17.50012594 0 0 Z M-37.6015625 72.66015625 C-38.76824463 72.79997925 -38.76824463 72.79997925 -39.95849609 72.94262695 C-50.18603472 74.29730301 -58.70220006 76.98699051 -65.6640625 84.97265625 C-69.78154664 91.27755385 -69.5841735 98.64553381 -68.6640625 105.97265625 C-66.70213057 110.93386342 -63.31766172 115.5678096 -58.5390625 118.09765625 C-48.51414756 121.14871732 -39.1480239 120.02856099 -29.8515625 115.22265625 C-27.20701057 113.82706511 -27.20701057 113.82706511 -24.6640625 111.97265625 C-23.03017578 110.90917969 -23.03017578 110.90917969 -21.36328125 109.82421875 C-17.6068453 105.93679347 -18.06139056 101.03984608 -18.09095764 95.96569824 C-18.13752048 93.67540916 -18.2125545 91.38712198 -18.2890625 89.09765625 C-18.31918434 87.53520734 -18.34655627 85.97270284 -18.37109375 84.41015625 C-18.43695449 80.59627706 -18.54034433 76.78507937 -18.6640625 72.97265625 C-25.11981244 72.13550374 -31.13713402 71.87613601 -37.6015625 72.66015625 Z " fill="#FEFEFE" transform="translate(1582.6640625,221.02734375)"/>
<path d="M0 0 C1.051875 0.7425 2.10375 1.485 3.1875 2.25 C16.70290349 15.46506119 20.73763262 33.90106097 23 52 C23 58.93 23 65.86 23 73 C-7.03 73 -37.06 73 -68 73 C-64.07293574 95.12288701 -64.07293574 95.12288701 -49.875 111.3125 C-33.13482256 121.32870617 -12.58871152 119.67623273 5.71484375 115.15625 C11.5390105 113.61882686 17.2772434 111.88514335 23 110 C23 118.58 23 127.16 23 136 C-6.84639193 144.49474232 -39.1762986 149.54257044 -68 135 C-71.88744855 132.57155645 -75.45460195 129.89971297 -79 127 C-79.65484375 126.50757813 -80.3096875 126.01515625 -80.984375 125.5078125 C-95.23335553 114.3482127 -101.44751703 95.25371296 -104 78 C-105.35673009 54.17294174 -103.29475466 31.25090367 -88 12 C-87.57589844 11.39027344 -87.15179687 10.78054687 -86.71484375 10.15234375 C-68.35935677 -14.49003786 -23.60134007 -17.25932931 0 0 Z M-60.0625 23.25 C-62.90434765 27.23158602 -64.40337697 31.44360683 -65.875 36.0625 C-66.19803101 37.07135254 -66.19803101 37.07135254 -66.52758789 38.10058594 C-67.91671603 42.80579014 -68 45.72083239 -68 51 C-49.19 51 -30.38 51 -11 51 C-11 38.33819159 -11.03837008 28.41653499 -20 19 C-26.02682381 13.27451738 -31.98029352 12.59663292 -40.03125 12.74609375 C-47.96391939 13.42454574 -54.85865116 17.22518773 -60.0625 23.25 Z " fill="#FEFEFE" transform="translate(2276,222)"/>
<path d="M0 0 C14.92404363 11.99099459 19.45911494 32.39557573 21.71484375 50.44140625 C22.04484375 57.70140625 22.37484375 64.96140625 22.71484375 72.44140625 C-7.64515625 72.44140625 -38.00515625 72.44140625 -69.28515625 72.44140625 C-67.30431451 85.20490776 -67.30431451 85.20490776 -62.84765625 96.12890625 C-62.27144531 97.22589844 -61.69523438 98.32289063 -61.1015625 99.453125 C-55.44750917 108.75495467 -47.76273179 113.84162473 -37.31640625 116.74609375 C-17.3629456 120.76764175 2.83262954 115.66142975 21.71484375 109.44140625 C21.71484375 118.02140625 21.71484375 126.60140625 21.71484375 135.44140625 C-8.040836 143.91033049 -41.84497184 149.58588378 -70.28515625 133.7734375 C-73.02834273 132.08503604 -75.66673046 130.31653697 -78.28515625 128.44140625 C-78.919375 127.9928125 -79.55359375 127.54421875 -80.20703125 127.08203125 C-94.56005853 115.88930355 -102.19135516 97.25754442 -104.83984375 79.78125 C-107.07630671 60.85166677 -105.72632794 41.70284416 -97.28515625 24.44140625 C-96.91648437 23.65378906 -96.5478125 22.86617187 -96.16796875 22.0546875 C-92.90907177 15.61555657 -88.31396378 10.56675284 -83.28515625 5.44140625 C-82.74246094 4.87421875 -82.19976563 4.30703125 -81.640625 3.72265625 C-60.65991904 -16.24885119 -22.92942082 -15.63904087 0 0 Z M-58.28515625 19.44140625 C-66.16682698 28.87970695 -68.18460694 38.33536387 -69.28515625 50.44140625 C-50.14515625 50.44140625 -31.00515625 50.44140625 -11.28515625 50.44140625 C-12.64412056 30.20681676 -12.64412056 30.20681676 -24.0703125 16.00390625 C-34.41185811 8.70828325 -49.00376474 11.77416978 -58.28515625 19.44140625 Z " fill="#FEFEFE" transform="translate(966.28515625,222.55859375)"/>
<path d="M0 0 C1.93794434 -0.00084595 1.93794434 -0.00084595 3.91503906 -0.00170898 C32.70424799 0.320874 32.70424799 0.320874 42.8125 5.375 C42.8125 13.955 42.8125 22.535 42.8125 31.375 C36.66027274 30.25641323 30.63102937 29.12879431 24.54711914 27.77563477 C8.45722467 24.28389575 -8.34799412 22.83968521 -23.125 31.5625 C-27.90963136 34.87975169 -31.26318766 38.3523986 -34.1875 43.375 C-34.56390625 44.00535156 -34.9403125 44.63570313 -35.328125 45.28515625 C-43.47673341 61.06548373 -43.10320713 82.85613965 -38.1875 99.375 C-33.49277708 111.86545913 -27.2960278 119.53358764 -15.14453125 125.15234375 C0.97658771 131.81801117 21.2079803 128.99104308 37.12109375 122.73828125 C40.8125 121.375 40.8125 121.375 44.8125 121.375 C44.8125 129.955 44.8125 138.535 44.8125 147.375 C16.63980405 154.19386908 -17.149282 160.94425174 -43.89599609 145.38085938 C-55.01941032 138.45407688 -62.5757371 130.71417337 -69.1875 119.375 C-69.579375 118.71757812 -69.97125 118.06015625 -70.375 117.3828125 C-81.02580459 97.99501977 -81.56559548 69.30919073 -75.56640625 48.37890625 C-69.78978627 30.76516177 -59.4490185 17.17681606 -43.04199219 8.29296875 C-29.54468986 1.61183964 -14.88291697 -0.01655389 0 0 Z " fill="#FEFEFE" transform="translate(1711.1875,211.625)"/>
<path d="M0 0 C11.22 0 22.44 0 34 0 C34 48.84 34 97.68 34 148 C23.11 148 12.22 148 1 148 C0 147 0 147 -0.12304783 144.58119869 C-0.12212604 143.49809194 -0.12120424 142.41498518 -0.12025452 141.29905701 C-0.12162918 140.0608017 -0.12300385 138.82254639 -0.12442017 137.54676819 C-0.12088056 136.16195655 -0.11724574 134.77714515 -0.11352539 133.39233398 C-0.11324352 131.94392906 -0.11340124 130.49552399 -0.1139679 129.04711914 C-0.11425589 125.10307686 -0.1083588 121.15906473 -0.10139394 117.21502948 C-0.09516078 113.09770531 -0.09455663 108.98038052 -0.09336853 104.86305237 C-0.0902551 97.06094138 -0.08204156 89.25884433 -0.07201904 81.45673949 C-0.06085826 72.57659696 -0.05534754 63.69645378 -0.05032361 54.81630599 C-0.03985895 36.54419448 -0.02151333 18.27210208 0 0 Z " fill="#FEFEFE" transform="translate(1947,215)"/>
<path d="M0 0 C12.21 0 24.42 0 37 0 C37 11.22 37 22.44 37 34 C24.79 34 12.58 34 0 34 C0 22.78 0 11.56 0 0 Z " fill="#FEFEFE" transform="translate(1946,155)"/>
<path d="" fill="#FFFFFF" transform="translate(0,0)"/>
<path d="" fill="#FFFFFF" transform="translate(0,0)"/>
<path d="" fill="#FFFFFF" transform="translate(0,0)"/>
<path d="" fill="#FFFFFF" transform="translate(0,0)"/>
<path d="" fill="#FFFFFF" transform="translate(0,0)"/>
<path d="" fill="#FFFFFF" transform="translate(0,0)"/>
<path d="" fill="#FFFFFF" transform="translate(0,0)"/>
<path d="" fill="#FFFFFF" transform="translate(0,0)"/>
<path d="" fill="#FFFFFF" transform="translate(0,0)"/>
<path d="" fill="#FFFFFF" transform="translate(0,0)"/>
<path d="" fill="#FFFFFF" transform="translate(0,0)"/>
<path d="" fill="#FFFFFF" transform="translate(0,0)"/>
<path d="" fill="#FFFFFF" transform="translate(0,0)"/>
<path d="" fill="#FFFFFF" transform="translate(0,0)"/>
<path d="" fill="#FFFFFF" transform="translate(0,0)"/>
<path d="" fill="#FFFFFF" transform="translate(0,0)"/>
<path d="" fill="#FFFFFF" transform="translate(0,0)"/>
<path d="" fill="#FFFFFF" transform="translate(0,0)"/>
<path d="" fill="#FFFFFF" transform="translate(0,0)"/>
<path d="" fill="#FFFFFF" transform="translate(0,0)"/>
<path d="" fill="#FFFFFF" transform="translate(0,0)"/>
<path d="" fill="#FFFFFF" transform="translate(0,0)"/>
<path d="" fill="#FFFFFF" transform="translate(0,0)"/>
<path d="" fill="#FFFFFF" transform="translate(0,0)"/>
<path d="" fill="#FFFFFF" transform="translate(0,0)"/>
<path d="" fill="#FFFFFF" transform="translate(0,0)"/>
<path d="" fill="#FFFFFF" transform="translate(0,0)"/>
<path d="" fill="#FFFFFF" transform="translate(0,0)"/>
<path d="" fill="#FFFFFF" transform="translate(0,0)"/>
<path d="" fill="#FFFFFF" transform="translate(0,0)"/>
<path d="" fill="#FFFFFF" transform="translate(0,0)"/>
<path d="" fill="#FFFFFF" transform="translate(0,0)"/>
<path d="" fill="#FFFFFF" transform="translate(0,0)"/>
<path d="" fill="#FFFFFF" transform="translate(0,0)"/>
<path d="" fill="#FFFFFF" transform="translate(0,0)"/>
<path d="" fill="#FFFFFF" transform="translate(0,0)"/>
<path d="" fill="#FFFFFF" transform="translate(0,0)"/>
<path d="" fill="#FFFFFF" transform="translate(0,0)"/>
<path d="" fill="#FFFFFF" transform="translate(0,0)"/>
<path d="" fill="#FFFFFF" transform="translate(0,0)"/>
<path d="" fill="#FFFFFF" transform="translate(0,0)"/>
<path d="" fill="#FFFFFF" transform="translate(0,0)"/>
<path d="" fill="#FFFFFF" transform="translate(0,0)"/>
<path d="" fill="#FFFFFF" transform="translate(0,0)"/>
<path d="" fill="#FFFFFF" transform="translate(0,0)"/>
<path d="" fill="#FFFFFF" transform="translate(0,0)"/>
<path d="" fill="#FFFFFF" transform="translate(0,0)"/>
<path d="" fill="#FFFFFF" transform="translate(0,0)"/>
</svg>
